<svg xmlns="http://www.w3.org/2000/svg" viewBox="0 0 205.02 66.84"><defs><style>.cls-1{font-size:25px;font-family:MVBoli, MV Boli;}.cls-1,.cls-2{fill:#231f20;}</style></defs><title>shapdesdwadddAsset 1</title><g id="Layer_2" data-name="Layer 2"><g id="Layer_1-2" data-name="Layer 1"><text class="cls-1" transform="translate(10.02 21.44)">Folow us on<tspan x="19.89" y="30">Facebook</tspan></text><path class="cls-2" d="M139.26,52.39a45.22,45.22,0,0,0,21,12.94C169.89,68,180,67,189.36,63.59a53.23,53.23,0,0,0,14-7.58c.64-.48,0-1.57-.63-1.08A54.22,54.22,0,0,1,179.12,65a42.76,42.76,0,0,1-30.3-6.18,45,45,0,0,1-8.67-7.32c-.55-.6-1.43.29-.89.88Z"/><path class="cls-2" d="M204.4,53.93a6.37,6.37,0,0,1-3.92-1,.63.63,0,1,0-.63,1.08,7.57,7.57,0,0,0,4.55,1.13.63.63,0,0,0,0-1.25Z"/><path class="cls-2" d="M203.86,54.24a7.73,7.73,0,0,0-.67,4.8.63.63,0,0,0,.77.44.65.65,0,0,0,.44-.77,6.45,6.45,0,0,1,0-1.91,6.18,6.18,0,0,1,.58-1.93.63.63,0,0,0-1.08-.63Z"/></g></g></svg>